<?xml version="1.0" standalone="no"?>
<!DOCTYPE svg PUBLIC "-//W3C//DTD SVG 20010904//EN"
 "http://www.w3.org/TR/2001/REC-SVG-20010904/DTD/svg10.dtd">
<svg version="1.0" xmlns="http://www.w3.org/2000/svg"
 width="16.000000pt" height="16.000000pt" viewBox="0 0 16.000000 16.000000"
 preserveAspectRatio="xMidYMid meet">
<metadata>
Created by potrace 1.11, written by Peter Selinger 2001-2013
</metadata>
<g transform="translate(0.000000,16.000000) scale(0.006154,-0.006154)"
fill="#000000" stroke="none">
<path d="M1095 2494 c-511 -90 -900 -484 -990 -998 -111 -645 335 -1277 985
-1392 110 -19 311 -19 424 1 435 77 798 392 941 818 75 225 75 524 -1 752
-142 429 -514 748 -954 820 -116 18 -297 18 -405 -1z m460 -655 c94 -29 95
-31 95 -166 l0 -116 -32 27 c-41 33 -113 71 -153 80 -56 14 -151 7 -208 -14
-198 -74 -293 -343 -189 -534 72 -132 220 -210 363 -191 56 8 156 53 183 84
11 11 23 21 28 21 4 0 8 -52 8 -115 0 -108 -1 -115 -22 -129 -87 -56 -299 -69
-427 -27 -187 62 -326 210 -376 402 -23 88 -16 241 15 324 110 293 419 446
715 354z"/>
</g>
</svg>
